<svg xmlns="http://www.w3.org/2000/svg"  viewBox="0 0 100 100" width="200px" height="200px"><path d="M90.065,53.781c2.221-3.072,3.173-6.813,2.689-10.639	c-0.841-6.632-6.265-12.056-12.896-12.896c-0.64-0.081-1.287-0.122-1.925-0.122c-0.989,0-1.971,0.099-2.932,0.293V24.5	C75,16.505,68.495,10,60.5,10c-3.197,0-6.247,1.07-8.718,2.935c-2.544-1.842-5.535-2.81-8.709-2.811	c-0.639,0-1.288,0.041-1.928,0.122c-6.633,0.841-12.057,6.264-12.898,12.895c-0.209,1.651-0.151,3.286,0.162,4.858H22.5	C14.505,28,8,34.505,8,42.5c0,3.197,1.07,6.247,2.936,8.719c-2.221,3.071-3.174,6.812-2.689,10.638	c0.841,6.632,6.265,12.055,12.896,12.896c0.652,0.082,1.3,0.123,1.931,0.123c0.997,0,1.975-0.096,2.927-0.284V80.5	C26,88.495,32.505,95,40.5,95c3.197,0,6.247-1.07,8.719-2.935c2.545,1.842,5.536,2.811,8.708,2.811c0.631,0,1.278-0.041,1.923-0.122	c6.639-0.842,12.062-6.265,12.903-12.897c0.209-1.651,0.151-3.286-0.162-4.858H78.5C86.495,77,93,70.495,93,62.5	C93,59.303,91.93,56.253,90.065,53.781z" opacity=".35"/><path fill="#f2f2f2" d="M88.065,51.781c2.221-3.072,3.173-6.813,2.689-10.639c-0.841-6.632-6.265-12.056-12.896-12.896	c-0.64-0.081-1.287-0.122-1.925-0.122c-0.989,0-1.971,0.099-2.932,0.293V22.5C73,14.505,66.495,8,58.5,8	c-3.197,0-6.247,1.07-8.718,2.935c-2.544-1.842-5.535-2.81-8.709-2.811c-0.639,0-1.288,0.041-1.928,0.122	c-6.633,0.841-12.057,6.264-12.898,12.895c-0.209,1.651-0.151,3.286,0.162,4.858H20.5C12.505,26,6,32.505,6,40.5	c0,3.197,1.07,6.247,2.936,8.719c-2.221,3.071-3.174,6.812-2.689,10.638c0.841,6.632,6.265,12.055,12.896,12.896	c0.652,0.082,1.3,0.123,1.931,0.123c0.997,0,1.975-0.096,2.927-0.284V78.5C24,86.495,30.505,93,38.5,93	c3.197,0,6.247-1.07,8.719-2.935c2.545,1.842,5.536,2.811,8.708,2.811c0.631,0,1.278-0.041,1.923-0.122	c6.639-0.842,12.062-6.265,12.903-12.897c0.209-1.651,0.151-3.286-0.162-4.858H76.5C84.495,75,91,68.495,91,60.5	C91,57.303,89.93,54.253,88.065,51.781z"/><path fill="#96c362" d="M67,22v21c0,4.418-3.582,8-8,8h0c-4.418,0-8-3.582-8-8V22c0-4.418,3.582-8,8-8h0	C63.418,14,67,17.582,67,22z"/><path fill="#81c2f6" d="M21,32h21c4.418,0,8,3.582,8,8v0c0,4.418-3.582,8-8,8H21c-4.418,0-8-3.582-8-8v0	C13,35.582,16.582,32,21,32z"/><path fill="#f9b84f" d="M56,52h21c4.418,0,8,3.582,8,8v0c0,4.418-3.582,8-8,8H56c-4.418,0-8-3.582-8-8v0	C48,55.582,51.582,52,56,52z"/><path fill="#81c2f6" d="M49.972,22c-0.314-4.753-4.553-8.433-9.512-7.805c-3.745,0.475-6.79,3.519-7.265,7.265	c-0.628,4.959,3.052,9.198,7.805,9.512V31h9v-9H49.972z"/><path fill="#f9b84f" d="M48.028,78c0.314,4.753,4.553,8.433,9.512,7.805c3.745-0.475,6.79-3.519,7.265-7.265	c0.628-4.959-3.052-9.198-7.805-9.512V69h-9v9H48.028z"/><path fill="#ff7575" d="M31,78V57c0-4.418,3.582-8,8-8h0c4.418,0,8,3.582,8,8v21c0,4.418-3.582,8-8,8h0	C34.582,86,31,82.418,31,78z"/><path fill="#ff7575" d="M21,49.028c-4.753,0.314-8.433,4.553-7.805,9.512c0.475,3.745,3.519,6.79,7.265,7.265	c4.959,0.628,9.198-3.052,9.512-7.805H30v-9h-9V49.028z"/><path fill="#96c362" d="M77,50.972c4.753-0.314,8.433-4.553,7.805-9.512c-0.475-3.745-3.519-6.79-7.265-7.265	c-4.959-0.628-9.198,3.052-9.512,7.805H68v9h9V50.972z"/><path fill="#40396e" d="M80.977,51.384c1.195-0.614,2.269-1.463,3.137-2.515c1.757-2.131,2.53-4.83,2.18-7.598	c-0.559-4.404-4.16-8.006-8.564-8.564c-2.763-0.349-5.465,0.423-7.597,2.179c-0.619,0.51-1.159,1.096-1.632,1.731V22	c0-5.238-4.262-9.5-9.5-9.5c-3.817,0-7.107,2.268-8.616,5.523c-0.614-1.195-1.463-2.269-2.516-3.137	c-2.13-1.756-4.825-2.529-7.597-2.179c-4.404,0.558-8.006,4.16-8.564,8.564c-0.351,2.768,0.423,5.466,2.18,7.598	c0.509,0.618,1.096,1.158,1.73,1.631H21c-5.238,0-9.5,4.262-9.5,9.5c0,3.818,2.268,7.107,5.524,8.616	c-1.195,0.614-2.269,1.463-3.137,2.516c-1.757,2.131-2.53,4.829-2.18,7.597c0.559,4.404,4.16,8.006,8.564,8.564	c0.437,0.055,0.87,0.083,1.302,0.083c2.302-0.001,4.5-0.783,6.295-2.263c0.618-0.509,1.159-1.096,1.632-1.73V78	c0,5.238,4.262,9.5,9.5,9.5c3.817,0,7.107-2.268,8.616-5.523c0.614,1.195,1.463,2.269,2.516,3.137	c1.795,1.479,3.992,2.263,6.295,2.263c0.431,0,0.865-0.028,1.302-0.083c4.404-0.559,8.006-4.16,8.564-8.564	c0.351-2.768-0.423-5.466-2.18-7.597c-0.509-0.618-1.096-1.159-1.73-1.632H77c5.238,0,9.5-4.262,9.5-9.5	C86.5,56.183,84.232,52.893,80.977,51.384z M69.5,42.291c0.013-0.062,0.021-0.127,0.025-0.192c0.125-1.899,1.042-3.684,2.515-4.897	c1.485-1.226,3.372-1.765,5.312-1.518c3.067,0.389,5.576,2.897,5.965,5.964c0.246,1.939-0.293,3.826-1.518,5.312	c-1.214,1.472-2.999,2.389-4.897,2.515c-0.064,0.004-0.128,0.013-0.189,0.025H69.5V42.291z M52.5,22c0-3.584,2.916-6.5,6.5-6.5	s6.5,2.916,6.5,6.5v21c0,3.584-2.916,6.5-6.5,6.5s-6.5-2.916-6.5-6.5V22z M34.684,21.648c0.389-3.067,2.897-5.576,5.965-5.964	c1.943-0.249,3.825,0.293,5.312,1.518c1.473,1.213,2.39,2.999,2.515,4.897c0.005,0.064,0.013,0.127,0.025,0.189V29.5h-7.209	c-0.062-0.012-0.127-0.021-0.192-0.025c-1.898-0.126-3.684-1.042-4.897-2.515C34.977,25.474,34.437,23.587,34.684,21.648z M14.5,40	c0-3.584,2.916-6.5,6.5-6.5h21c3.584,0,6.5,2.916,6.5,6.5s-2.916,6.5-6.5,6.5H21C17.416,46.5,14.5,43.584,14.5,40z M28.5,57.709	c-0.013,0.062-0.021,0.127-0.025,0.192c-0.125,1.898-1.042,3.684-2.515,4.897c-1.486,1.225-3.373,1.763-5.312,1.518	c-3.067-0.389-5.576-2.897-5.965-5.965c-0.246-1.939,0.293-3.825,1.518-5.312c1.214-1.473,2.999-2.39,4.897-2.515	c0.064-0.005,0.128-0.013,0.189-0.025H28.5V57.709z M45.5,78c0,3.584-2.916,6.5-6.5,6.5s-6.5-2.916-6.5-6.5V57	c0-3.584,2.916-6.5,6.5-6.5s6.5,2.916,6.5,6.5V78z M44.387,49.184c2.233-0.581,4.15-1.948,5.428-3.797	c0.581,2.233,1.948,4.15,3.797,5.428c-2.233,0.581-4.15,1.948-5.428,3.797C47.603,52.379,46.236,50.462,44.387,49.184z M63.316,78.352c-0.389,3.067-2.897,5.576-5.965,5.965c-1.944,0.247-3.825-0.294-5.312-1.518c-1.473-1.214-2.39-2.999-2.515-4.897	c-0.005-0.064-0.013-0.128-0.025-0.189V70.5h7.209c0.062,0.013,0.127,0.021,0.192,0.025c1.898,0.125,3.684,1.042,4.897,2.515	C63.023,74.526,63.562,76.412,63.316,78.352z M77,66.5H56c-3.584,0-6.5-2.916-6.5-6.5s2.916-6.5,6.5-6.5h21	c3.584,0,6.5,2.916,6.5,6.5S80.584,66.5,77,66.5z"/></svg>